<?xml version="1.0" encoding="UTF-8"?>
<svg width="12px" height="12px" viewBox="0 0 12 12" version="1.1" xmlns="http://www.w3.org/2000/svg" xmlns:xlink="http://www.w3.org/1999/xlink">
    <!-- Generator: Sketch 54.1 (76490) - https://sketchapp.com -->
    <title>foundation/icon/16px/search</title>
    <desc>Created with Sketch.</desc>
    <g id="Foundation" stroke="none" stroke-width="1" fill="none" fill-rule="evenodd">
        <g id="Foundations/Iconography" transform="translate(-182.000000, -961.000000)">
            <g id="16px" transform="translate(40.000000, 905.000000)">
                <g id="search" transform="translate(104.000000, 38.000000)">
                    <g id="foundation/icon/16px/search" transform="translate(36.000000, 16.000000)">
                        <g id="round-search-16px">
                            <polygon id="Path" points="0 0 16 0 16 16 0 16"></polygon>
                            <path d="M10.7986445,9.73827066 L10.2425717,9.73827066 L10.0454826,9.54833186 C10.8901502,8.56346398 11.3265618,7.2198228 11.0872393,5.79176437 C10.7564111,3.83609815 9.12338704,2.27437908 7.15249589,2.03519688 C4.17504246,1.66938881 1.66919513,4.17376714 2.03521777,7.14947509 C2.27454027,9.11921085 3.8371754,10.7512776 5.79398877,11.0819118 C7.22288486,11.321094 8.56731418,10.8849383 9.55275976,10.0407658 L9.74280998,10.2377394 L9.74280998,10.7934862 L12.7343412,13.7832637 C13.022936,14.0716893 13.4945421,14.0716893 13.7831369,13.7832637 C14.0717316,13.4948381 14.0717316,13.0235085 13.7831369,12.7350829 L10.7986445,9.73827066 Z M6.57530633,9.73827066 C4.82262098,9.73827066 3.40780269,8.32428178 3.40780269,6.5726239 C3.40780269,4.82096603 4.82262098,3.40697714 6.57530633,3.40697714 C8.32799168,3.40697714 9.74280998,4.82096603 9.74280998,6.5726239 C9.74280998,8.32428178 8.32799168,9.73827066 6.57530633,9.73827066 Z" id="Shape" fill="#808E93" fill-rule="nonzero"></path>
                        </g>
                    </g>
                </g>
            </g>
        </g>
    </g>
</svg>